# xmcd
#
# Track frame offsets: 
#        150
#        16789
#        26723
#        36860
#        50913
#        70796
#        81347
#        93129
#        112633
#        124473
#        170296
#        183309
#        202388
#        221617
#        240480
#        257428
#        281996
#        301633
#        313175
#        325419
#
# Disc length: 4537 seconds
#
# Revision: 0
# Processed by: cddbd v1.5.2PL0 Copyright (c) Steve Scherf et al.
# Submitted via: ExactAudioCopyFreeDBPlugin 1.0
#
DISCID=1b11b714
DTITLE=Various Artist - Blues z Kapustą 
DYEAR=2016
DGENRE=
TTITLE0=Elvis Presley - Reconsider Baby
TTITLE1=James Brown - Messing With The Blues
TTITLE2=Buddy Guy and Junior Wells - Messin' With The Kid
TTITLE3=The Paul Butterfield Blues Band - Born In Chicago
TTITLE4=Koko Taylor - Wang Dang Doodle
TTITLE5=The Lovin' Spoonful - Daydream
TTITLE6=John Mayall - Looking Back
TTITLE7=The Allman Brothers Band - Statesboro Blues
TTITLE8=J.J. Cale - Call Me The Breeze
TTITLE9=The Keef Hartley Band - The Time Is Near
TTITLE10=Leon Redbone - Dancin' On Daddy's Shoes
TTITLE11=Chris Rea - Dancing My Blues Away
TTITLE12=Elvin Bishop - Blues With A Feeling
TTITLE13=Paddy Milner - 21st Century Boogie
TTITLE14=Taj Mahal - I'm Ready
TTITLE15=Irek Dudek - Something Must Have Changed
TTITLE16=Voo Voo and Kasia Nosowska - Nim Stanie Się Tak, Jak Gdyby Nigd
TTITLE16=y Nic
TTITLE17=The McGuire Sisters - Sugartime
TTITLE18=Sam The Sham and The Pharaohs - Lil' Red Riding Hood
TTITLE19=Baobab and The Vintage All Stars - When I'm 64
EXTD=
EXTT0=
EXTT1=
EXTT2=
EXTT3=
EXTT4=
EXTT5=
EXTT6=
EXTT7=
EXTT8=
EXTT9=
EXTT10=
EXTT11=
EXTT12=
EXTT13=
EXTT14=
EXTT15=
EXTT16=
EXTT17=
EXTT18=
EXTT19=
PLAYORDER=
